<?xml version="1.0" encoding="utf-8"?>
<!-- Generator: Adobe Illustrator 22.0.1, SVG Export Plug-In . SVG Version: 6.00 Build 0)  -->
<svg version="1.1" id="Layer_2" xmlns="http://www.w3.org/2000/svg" xmlns:xlink="http://www.w3.org/1999/xlink" x="0px" y="0px"
	 viewBox="0 0 225 138.7" style="enable-background:new 0 0 225 138.7;" xml:space="preserve">
<style type="text/css">
	.st0{clip-path:url(#SVGID_2_);}
	.st1{clip-path:url(#SVGID_4_);fill:none;stroke:#FFFFFF;stroke-width:2.0131;stroke-miterlimit:10;}
	.st2{clip-path:url(#SVGID_2_);fill:#FFFFFF;}
	.st3{clip-path:url(#SVGID_6_);fill:#FFFFFF;}
	.st4{clip-path:url(#SVGID_6_);fill:#231F20;}
	.st5{clip-path:url(#SVGID_6_);fill:none;stroke:#FFFFFF;stroke-width:1.0066;stroke-linecap:round;stroke-miterlimit:10;}
	.st6{clip-path:url(#SVGID_6_);fill:none;stroke:#FFFFFF;stroke-width:0.8053;stroke-linecap:round;stroke-miterlimit:10;}
	.st7{clip-path:url(#SVGID_6_);fill:none;stroke:#FFFFFF;stroke-width:0.7046;stroke-linecap:round;stroke-miterlimit:10;}
	.st8{clip-path:url(#SVGID_6_);fill:none;stroke:#FFFFFF;stroke-width:0.6039;stroke-linecap:round;stroke-miterlimit:10;}
	.st9{clip-path:url(#SVGID_6_);fill:none;stroke:#FFFFFF;stroke-width:0.5033;stroke-linecap:round;stroke-miterlimit:10;}
</style>
<g>
	<g>
		<defs>
			<rect id="SVGID_1_" x="-82.4" y="-24.3" width="386.5" height="217.4"/>
		</defs>
		<clipPath id="SVGID_2_">
			<use xlink:href="#SVGID_1_"  style="overflow:visible;"/>
		</clipPath>
		<g class="st0">
			<defs>
				<rect id="SVGID_3_" x="-82.4" y="-24.3" width="386.5" height="217.4"/>
			</defs>
			<clipPath id="SVGID_4_">
				<use xlink:href="#SVGID_3_"  style="overflow:visible;"/>
			</clipPath>
			<path class="st1" d="M69.5,100.1c-1.4,0.4-5.7,0.9-5.7,0.9s-4.3,2.3-5.7,3c-1.9,1-2.5,1.5-4.6,2.1c-1.8,0.5-4.2,0.2-6.1,0
				c-1.7-0.2-5.4-2.9-6.8-3.9c-1.5-1.1-3.2-2.1-4.3-3.6c-1.1-1.5-3.6-2.3-5-3.4c-1.8-1.4-3.5-2.3-4.5-4.3c-0.9-1.8-6.1-9.4-5.4-14.8
				c0.6-4.9,5.5-12.2,7.3-15.5c3.6-6.4,6.9-14.7,12.8-20c2.5-2.3,12-8.3,12-8.3s8.5-7.8,12.1-10.2C68,20.6,72,18.7,76.1,17
				c4.4-1.8,10.6-5.9,16.1-6.1c5.9-0.2,4.4,0.7,10.7,0.3c4.1-0.3,6.8,2.4,14.2-0.7c4.2-1.7,3.9,1.3,8.5,0.6
				c8.5-1.3,11.6,4.2,15.9,5.3c3.9,1,11.6,1.8,14.2,2.7c5.7,2,6.9,5.5,11.8,8.9c4.4,3,13.7,8.9,18.6,14.7c5.6,6.5,5.4,12.1,7.5,17.1
				c1.9,4.7,5.5,15.4,5.3,20.5c-0.1,4.5-2.5,13.2-3.9,17.5c-0.8,2.6-2,8.1-3.6,10.3c-1.2,1.7-4.6,4.5-6.6,5c-3.4,0.8-11-0.9-16-2.3
				c-7.7-2.2-14.5,2.7-18.4-4.5c-3.8,0.2-5.3,5.8-14.5,4.8c-4.4-0.5-12.3,5.2-16.3,7.2c-5.7,2.9-16.9,8.9-23.1,10.1
				c-4,0.8-15.3-1.6-15.3-1.6s-8.8-2.4-11-4.8c-1.5-1.7-5.5-5.5-5.3-7.7c0.2-2.1,0.7-7.4,1.8-9.2L69.5,100.1z"/>
		</g>
		<polygon class="st2" points="131.8,68.4 133.3,68.3 134.1,67.9 135.7,67 136.3,66.7 138,66.7 139.8,66.4 137.8,65.3 136.5,64.6 
			135.9,63.8 135.6,63.2 135.4,62.2 135.4,60.9 135.1,59.2 133.7,63.7 131.8,67 130.9,67.9 		"/>
		<polygon class="st2" points="124.4,74.4 123.8,73.3 122.9,72.2 123.8,71.8 124.9,71.6 127.3,71.6 125.6,72.2 125.3,73 125.2,73.8 
			125.6,75.3 		"/>
		<polygon class="st2" points="151,72 151.6,72.4 151.8,72.7 152.2,72.9 152.6,73 153.1,73 153.5,73 154.3,72.8 154.7,72.7 
			155.1,72.7 154.2,73.3 153.6,73.8 153.1,74.2 152.5,74.8 152.1,75 152,74.2 151.8,73.3 151.3,72.7 		"/>
		<polygon class="st2" points="170.7,110.4 168,110.4 165.6,110.1 166.5,109.4 168,108.7 168.6,108.4 169.5,107.7 170.1,107.6 
			169.4,108.7 169.3,109.4 169.5,110 		"/>
		<polygon class="st2" points="153.1,103.7 152.6,104.6 152.2,105.6 152.2,106.7 152.4,107.7 152.6,108.7 151,107.1 149.9,106.2 
			151,105.6 		"/>
		<polygon class="st2" points="193.5,66.4 193.5,64.8 193.7,64.1 194.3,62.4 195.1,63.4 195.6,64.8 195.9,65.6 196.3,67 195.4,66.5 
			194.9,65.6 194.3,65.6 193.7,65.6 		"/>
		<polygon class="st2" points="145.5,46.4 145.5,45.1 145.5,44.3 145.4,43.7 145.1,43.3 144.5,42.5 143.7,41.9 142.6,41 141.7,40.5 
			140.6,39.8 138.3,38.8 140.3,39 141.1,39.2 142.3,39.7 143.1,40.3 144,41.1 144.7,41.7 145.5,42.2 146.1,42.7 146.2,43 
			146.6,44.4 146.6,45.8 		"/>
		<polygon class="st2" points="166.6,28.1 165.8,26.6 164.9,25.8 163.7,24.7 163.4,25.6 163.7,26.4 163.7,27.2 		"/>
		<polygon class="st2" points="170.9,52.2 170.9,53 171.1,54.1 171.4,54.8 169.4,54.6 		"/>
		<polygon class="st2" points="144.6,19.1 144.6,18.2 144.6,17 143.3,16.7 142.4,16.7 142.4,17.6 		"/>
		<polygon class="st2" points="109.8,12 112.7,11.8 111.9,13 110.8,14 110.2,14 		"/>
		<polygon class="st2" points="99.8,21.8 100.6,22.4 100.6,23 100.6,24.3 101.6,23.1 102,22.4 102.6,21.3 		"/>
		<polygon class="st2" points="77.3,27.2 77.3,26.4 76.7,26 78.1,25.2 79.3,24.3 		"/>
		<polygon class="st2" points="89,36.8 89,37.9 89.6,39.3 87.5,38.6 		"/>
		<polygon class="st2" points="73.1,48.9 73.2,47.5 72.9,46.9 71.9,45.6 73.3,46.2 74.3,46.7 75.2,46.9 		"/>
		<polygon class="st2" points="130.1,31.4 130.4,32.2 130.4,33.4 131.7,32.4 132.4,31.4 		"/>
		<polygon class="st2" points="139.3,26.7 136,26 138,27.5 		"/>
		<polygon class="st2" points="190.7,99.1 191.8,96.7 190.3,98.3 		"/>
		<polygon class="st2" points="144.5,94.3 145.9,93.8 147.7,93.5 145.6,91.7 145,93 		"/>
		<polygon class="st2" points="157.1,96.9 154.9,97 152.8,96.6 153.7,97.8 154.2,99.2 		"/>
		<polygon class="st2" points="171.8,103.4 171,102.8 170.7,102.2 170.7,100.8 169.9,101.8 169.4,102.8 169.8,104 169.9,104.6 
			170.7,103.9 		"/>
		<polygon class="st2" points="172.2,98.2 172.7,97.6 173.3,97.4 174.4,97.3 173.1,96.6 172,96.3 172,96.9 		"/>
		<polygon class="st2" points="174.2,83.3 175.2,83.3 175.9,82.8 176.5,82.2 176.5,83.9 176.5,84.8 175.7,84.8 		"/>
		<g class="st0">
			<defs>
				<rect id="SVGID_5_" x="-82.4" y="-24.3" width="386.5" height="217.4"/>
			</defs>
			<clipPath id="SVGID_6_">
				<use xlink:href="#SVGID_5_"  style="overflow:visible;"/>
			</clipPath>
			<path class="st3" d="M70,100.7c2.2-4,5.4-7.5,9.2-10.1c1.9-1.3,4-2.7,6.4-2.6c1.3,0,2.5,0.5,3.6,1c1.1,0.5,2.4,1.1,3.4,1.8
				c1,0.8,2.8-0.6,1.4-1.3c-1.3-0.6-2.4-1.5-3.7-2.1c-1.2-0.6-2.6-1-3.9-1.1c-2.9-0.3-5.5,0.9-7.8,2.4c-4.4,2.9-8,7-10.5,11.6
				C67.5,101.3,69.5,101.6,70,100.7"/>
			<path class="st3" d="M90.1,89.2c2.8,0.5,5.8,0.1,8.3-1.1c1.2-0.6,2.4-1.4,3.4-2.3c1.2-1.2,2.1-2.7,3-4.1c1.9-2.7,4.7-4.8,7.4-6.7
				c1.4-1,2.9-1.8,4.6-2.1c1.8-0.3,3.7,0.2,5.5,0.1c3.8-0.3,7.1-2.3,10.1-4.5c0.9-0.7-0.5-1.3-1.2-0.9c-2.8,1.7-5.7,3.8-9,4
				c-1.7,0.1-3.5-0.3-5.2-0.1c-1.4,0.2-2.8,0.6-4.1,1.3c-2.7,1.4-5.3,3.5-7.5,5.6c-2.3,2.2-3.4,5.3-5.9,7.3c-2.5,2-5.8,3-9,2.4
				C89.6,87.9,89,89,90.1,89.2"/>
			<path class="st3" d="M131.9,68.9c1.9-0.8,2.8-2.9,3.2-4.9c0.4-2,0.6-5.5-1.2-6.9c-0.3-0.2-1.1-0.2-1.2,0.2
				c-0.3,0.9,0,1.7,0.2,2.6c0.2,1,0.2,2.1,0.1,3.1c-0.1,1.4-0.5,3.7-2,4.5C129.7,68.2,131,69.3,131.9,68.9"/>
			<path class="st3" d="M133.5,68.3c1-0.3,1.8-0.9,2.8-1.2c0.9-0.3,1.7,0,2.5,0.5c1,0.6,2.4,1.4,3.3,0.3c0.3-0.4-0.2-0.6-0.5-0.7
				c-0.5,0-0.9-0.4-1.4-0.7c-0.6-0.4-1.3-0.8-2-0.9c-0.8-0.2-1.6-0.2-2.4,0.1c-1,0.3-1.8,1-2.7,1.3C132,67.4,132.6,68.6,133.5,68.3"
				/>
			<path class="st3" d="M98.2,69.3c3.4-3.4,4.3-8.2,5.6-12.7c0.7-2.3,1.5-4.6,2.9-6.6c0.8-1.1,1.7-2.1,2.9-2.7
				c1.1-0.6,2.4-0.5,3.7-0.6c1-0.1,2.1-0.2,3-0.9c0.7-0.5,0.9-1.1,1.3-1.8c1.1-2.4,2.4-4.7,2.8-7.3c0.4-2.4-0.4-4.8-1.8-6.7
				c-0.7-1-1.6-1.8-2.5-2.5c-1-0.7-1.9-1.3-2.2-2.6c-0.4-2.2,1.2-4.7,2.1-6.6c1.4-2.7,3.8-4.5,6.5-5.6c0.8-0.3,0.1-1.1-0.5-1
				c-4.9,1-7.7,5.4-9.4,9.8c-0.7,1.9-0.9,4,0.5,5.6c0.9,0.9,2.1,1.5,3,2.4c0.9,0.9,1.6,2,2,3.2c1,2.7,0.3,5.2-0.8,7.8
				c-0.5,1.2-1.1,2.3-1.6,3.5c-0.4,1-1,1.3-2.1,1.5c-1.2,0.2-2.5,0.1-3.7,0.4c-1.2,0.3-2.3,1-3.1,1.9c-1.7,1.6-2.8,3.8-3.6,6
				c-1.8,5.1-2.3,11-6.2,15C96.4,69.4,97.7,69.8,98.2,69.3"/>
			<path class="st3" d="M159,61.6c2.4-2.6,5.7-5.4,9.2-6.4c3.1-0.9,5.6,1.9,8.7,1.3c0.6-0.1,0.4-0.9-0.2-0.8c-1.8,0-3.1-0.6-4.8-1.1
				c-1.6-0.5-3.1-0.5-4.7,0c-3.5,1.3-6.7,3.9-9.2,6.7C157.8,61.6,158.7,61.9,159,61.6"/>
			<path class="st3" d="M166.1,43.7c0.3,1.3,1,2.3,2,3.1c0.9,0.7,1.9,1.3,2.3,2.4c0.7,2.2-0.2,5-2.8,5.3c-0.6,0-0.6,0.7,0,0.7
				c2.8,0,4.3-2.4,4-5.1c-0.1-1.1-0.6-2-1.4-2.8c-1.3-1.2-2.6-1.9-3-3.8C167,43,166,43.1,166.1,43.7"/>
			<path class="st3" d="M125.3,28.3c0.7,1.2,1.4,2.3,2.7,2.9c1.4,0.6,2.8,0.4,4.2,0.6c0.9,0.1,0.8-1,0-0.8c-1.2,0.3-2.7,0.2-3.8-0.3
				c-1.1-0.5-1.8-1.6-2.4-2.7C125.9,27.6,125.1,27.9,125.3,28.3"/>
			<path class="st3" d="M165,41.3c-1-0.5-1.8-1.2-2.2-2.3c-0.3-0.9-0.4-1.8-0.7-2.6c-1.2-3.2-4.8-5.2-7.8-6.3
				c-1.9-0.7-4.1-0.5-5.9-1.7c-2-1.3-4.3-1.6-6.6-2.1c-1.2-0.3-2.3-0.1-3.6,0.2c-0.8,0.2-1.1,1.4-1.6,2.1c-0.6,0.8-1.4,1.4-2.4,1.8
				c-0.5,0.2-1.1,0.2-1.6,0.4c-0.5,0.2-0.9,0.8-1.3,1.2c-0.6,0.7-1,1.4-1.5,2.2c-0.7,1-1.6,1.6-2.8,2.1c-0.5,0.2,0,0.7,0.4,0.5
				c1.5-0.5,2.6-1.3,3.5-2.6c0.4-0.6,0.7-1.1,1.2-1.6c0.3-0.4,0.7-0.8,1.2-1c0.4-0.2,0.8-0.2,1.2-0.3c1.9-0.7,3.5-2.3,4.2-4.2
				c-0.1,0.1-0.3,0.2-0.5,0.3c0.8-0.2,1.6-0.5,2.4-0.4c1.2,0.1,2.5,0.4,3.7,0.7c0.9,0.2,1.9,0.6,2.7,1.1c0.6,0.3,1.1,0.7,1.7,0.9
				c1.3,0.4,2.6,0.5,3.9,0.8c1.6,0.4,3.2,1.3,4.6,2.2c1,0.6,1.9,1.3,2.6,2.3c0.8,1.1,1.1,2.3,1.4,3.6c0.4,1.7,1.5,2.7,3,3.4
				C164.9,42.4,165.8,41.7,165,41.3"/>
			<path class="st3" d="M138.4,27.3c-0.6-0.6-1.2-1.1-2-1.5c-0.4-0.2-0.8-0.4-1.2-0.5c-0.5-0.2-1-0.2-1.5-0.5
				c-0.9-0.5-1.4,1.1-0.2,0.9c0.6-0.1,1.5,0.3,2,0.6c0.7,0.4,1.3,0.8,1.9,1.4C137.9,28,138.8,27.7,138.4,27.3"/>
			<path class="st3" d="M173.3,60c2,0,3.9-0.8,5.8-1.2c1-0.2,1.9-0.4,2.8-0.1c1.5,0.5,2.8,1.4,3.5,2.8c0.7,1.4,0.8,3,0.8,4.5
				c0.1,1.8-0.1,3.7-0.5,5.4c-0.3,1.6-0.8,3.2-1.1,4.8c-0.2,1.2-0.5,2.3-0.2,3.4c0.3,1.2,1,2.3,1.5,3.4c0.5,0.9,1.2,2.1,0.7,3.1
				c-0.3,0.6,1,0.8,1.2,0.3c0.7-1.9-1.1-4.2-1.8-5.9c-0.6-1.5-0.5-2.6-0.2-4.2c0.4-1.7,0.9-3.5,1.2-5.2c0.6-3.2,1-7.3-0.7-10.2
				c-1.1-2-3.7-3.5-6-3.4c-2.5,0.2-4.8,1.4-7.3,1.5C172.6,59.1,172.5,60,173.3,60"/>
			<path class="st3" d="M193.9,80.9c-0.7,1.6-1.3,3.3-1.1,5.2c0.3,1.9,0.7,3.7,0.3,5.6c-0.4,1.9-1.2,3.6-2.5,5
				c-1.3,1.4-2.8,2.3-4.6,3.1c-0.4,0.2,0,0.6,0.3,0.5c3.4-0.8,6.3-3.8,7.3-7.1c0.6-1.7,0.7-3.6,0.3-5.4c-0.2-1.1-0.5-2.1-0.4-3.2
				c0.1-1.2,0.6-2.3,1-3.4C194.9,80.7,194,80.5,193.9,80.9"/>
			<path class="st3" d="M89,100.5c5.2,4.2,13.6,3.2,16.9-2.9c0.2-0.4-0.6-0.5-0.7-0.2c-1.7,2.4-3.9,4.2-6.8,4.8
				c-3.1,0.7-6.3-0.2-8.7-2.2C89.3,99.8,88.6,100.2,89,100.5"/>
			<path class="st3" d="M91.9,102.4c-0.7,2.8-3.5,4-6.2,4.2c-2.6,0.2-5.7-0.5-8.2,0.8c-1.9,0.9-2.9,3.1-2.5,5.1c0.2,1,0.9,2,1.6,2.7
				c0.8,0.9,2.1,1.6,2.7,2.7c0.4,0.7,1.9,0,1.1-0.7c-0.5-0.4-0.8-1-1.2-1.4c-0.3-0.4-0.7-0.7-1-1.1c-0.8-0.8-1.4-1.8-1.5-2.9
				c-0.1-1.1,0.4-2.3,1.2-3c1.1-1,2.7-1,4-1c4-0.1,9.9-0.3,11.1-5.2C93.2,102,92.1,101.9,91.9,102.4"/>
			<path class="st3" d="M103.3,95.4c2.5,3.8,8.2,2.1,11.3,0.3c0.3-0.2-0.1-0.4-0.3-0.4c-3.1,0.9-8,3.3-10.4-0.2
				C103.8,94.8,103.1,95,103.3,95.4"/>
			<path class="st3" d="M111.4,92c3,4,8.9,5.5,13.4,3.2c5.3-2.7,8.4-11.4,15.3-10.2c0.5,0.1,1.1-0.5,0.4-0.8
				c-6.1-2-10.1,4.7-13.9,8.2c-2.1,1.9-4.5,3-7.3,2.8c-2.7-0.2-5.3-1.5-6.9-3.7C112.1,91.1,111,91.4,111.4,92"/>
			<path class="st3" d="M146.1,85.1c5.4-2,9-9.4,4.5-14c-0.5-0.5-1.5,0.2-0.8,0.6c2.5,1.3,2.2,5.3,1.3,7.5c-1,2.5-3,4.4-5.5,5.4
				C145.1,84.7,145.7,85.3,146.1,85.1"/>
			<path class="st3" d="M68.2,85.5c1.4,0.9,1.7,2.2,2,3.7c0.2,1.1,0.6,1.8,1.5,2.4c1,0.6,2.1,0.9,3.3,0.9c1.3,0,2.1-0.6,3.1-1.4
				c1.2-1-1.6-2-1.7-0.5c-0.1,0.8-1.8,0.6-2.3,0.5c-0.7-0.2-1.6-0.5-2-1.1c-0.4-0.8-0.4-1.9-0.7-2.7c-0.4-1.1-1.1-2-2.1-2.6
				c-0.3-0.2-0.8-0.3-1.2,0C67.9,84.8,67.8,85.3,68.2,85.5"/>
			<path class="st3" d="M74.1,93c-1.3,1.3-3.4,3.4-5.5,3.1c-0.7-0.1-1.2-0.5-1.6-1c-0.6-0.5-1.2-0.8-1.9-1.2c-1-0.5-2-1-3-1.4
				c-1-0.4-1.9-0.3-2.9-0.3c-0.7,0-1.3,0-2,0c-0.8,0.1-1.6,0.3-2.4,0.5c-1,0.2-2,0.3-3,0.1c-1.3-0.3-2-1.4-2.5-2.5
				C49,89.9,47.9,90,48,90.6c0.7,2.2,2.5,3.4,4.8,3.4c1.8,0,3.6-0.8,5.4-0.8c1.1,0,2.2-0.2,3.3,0.2c1.4,0.5,2.9,1.1,4.1,1.9
				c1.1,0.7,1.8,1.6,3.2,1.6c2.5,0.1,4.6-1.9,6.2-3.6C75.4,92.9,74.4,92.6,74.1,93"/>
			<path class="st3" d="M53.5,106.5c1,0,1-0.8,0-0.8C52.5,105.7,52.5,106.5,53.5,106.5"/>
			<path class="st3" d="M65.3,100.1c-1.6,0-3.4,0.1-5-0.2c-0.7-0.1-0.7,0.8,0,0.7c1.6-0.2,3.3,0,5,0
				C65.8,100.6,65.8,100.1,65.3,100.1"/>
			<path class="st3" d="M60.5,101.6c-0.9-0.1-1.8-0.1-2.7-0.2c-0.5-0.1-0.7,0.6-0.1,0.6c0.9,0,1.9,0.1,2.8,0.2
				C60.9,102.2,60.9,101.6,60.5,101.6"/>
			<path class="st3" d="M30.9,87.5c-1.2-1.2-2-3.5-2.1-5.2c-0.1-1.4,0.8-2.5,1.8-3.4c0.9-0.8,1.9-0.5,3-0.8c0.4-0.1,0.3-0.6-0.1-0.5
				c-1.1,0.1-2.2-0.2-3.1,0.4c-1.1,0.8-2.2,2.1-2.4,3.4c-0.2,1.1,0.1,2.2,0.5,3.3c0.4,1.1,0.8,2.3,1.7,3.1
				C30.4,88.1,31.2,87.9,30.9,87.5"/>
			<path class="st3" d="M29.8,79.1c-1.8-1.7-1.1-4.8-0.3-6.8c0.9-2.2,2.5-4.4,4.3-6c0.5-0.4-0.4-0.9-0.8-0.4c-1.8,2.3-3.8,4.2-4.7,7
				c-0.8,2.2-1,5,0.8,6.7C29.5,79.9,30.2,79.5,29.8,79.1"/>
			<path class="st3" d="M61.6,29.9c-0.3,2.3-0.6,4.7-2.4,6.4c-1.9,1.8-4.5,2.7-6.7,4.2c-2.2,1.6-3.8,3.7-5.4,5.9
				c-1.5,2.1-2.1,4.1-1.6,6.7c0.1,0.4,1.1,0.4,1.1-0.1c-0.1-1.3-0.1-2.6,0.3-3.9c0.4-1.2,1.2-2.1,2-3.1c0.9-1.2,1.7-2.4,2.7-3.4
				c1-0.9,2.1-1.7,3.2-2.4c2.1-1.3,4.6-2.3,6-4.3c1.3-1.7,1.5-4,1.7-6C62.8,29.4,61.7,29.4,61.6,29.9"/>
			<path class="st3" d="M51.5,41.5c-1.5,1.6-3,3.3-4.8,4.5c-0.9,0.7-1.9,1.2-3,1.7c-0.9,0.4-1.8,0.8-2.5,1.6
				c-1.1,1.2-1.6,2.9-2.1,4.4c-0.5,1.5-0.9,3.1-1,4.8c0,0.5,0.9,0.5,1,0c0.2-1.6,0.7-3.2,1.1-4.7c0.5-1.5,1-3.4,2.2-4.4
				c0.9-0.7,2.2-1.1,3.2-1.7c0.8-0.5,1.6-1,2.3-1.6c1.6-1.3,3-2.8,4.3-4.3C52.6,41.5,51.8,41.2,51.5,41.5"/>
			<path class="st3" d="M103.2,15.4c2.7,0.6,5.4,0.4,7.8-1c2.1-1.2,4.3-3.2,6.9-3.2c1.1,0,0.7-1.4-0.4-1c-1.2,0.4-2.4,0.7-3.5,1.3
				c-1,0.5-1.9,1.2-2.8,1.7c-2.5,1.6-4.9,2-7.8,1.5C102.9,14.6,102.6,15.3,103.2,15.4"/>
			<path class="st3" d="M90.5,40.2c-2,1.5-1.2,4,0,5.7c0.8,1.1,1.9,2.1,2.4,3.4c0.7,1.6,0.2,3.2-0.8,4.5c-0.9,1.2-2,2.1-3,3.1
				c-1,1-1.8,2.1-2.4,3.4c-0.5,0.9-0.8,1.8-1.1,2.7c-0.2,0.7-0.6,1.5-0.7,2.3c-0.2,1.3,0.1,2.9,0.7,4c0.3,0.6,0.6,1.1,0.8,1.7
				c0.3,0.9,0.2,1.7-0.3,2.6c-0.3,0.6,1.1,0.9,1.3,0.3c0.4-1.4,0.3-2.8-0.3-4.1c-0.7-1.4-1.4-3.2-0.8-4.9c0.8-2.5,1.8-5,3.5-7
				c2-2.3,5.5-4.6,4.5-8.2c-0.5-1.6-1.7-2.8-2.7-4.1c-1-1.4-2-3.7-0.3-4.9C91.7,40.3,90.9,39.9,90.5,40.2"/>
			<path class="st3" d="M84.5,86.7c-2-1.4-3.4-4.1-2.8-6.6c0.3-1.1,0.7-2.1,0.9-3.2c0.2-0.9,0.1-1.7,0.2-2.5
				c0.1-1.5-2.9-0.6-1.9,0.4c0.6,0.7-0.2,2.3-0.4,3c-0.3,1-0.7,2-0.7,3c-0.1,2.7,1.4,5.3,3.5,6.8C83.9,88.1,85.4,87.3,84.5,86.7"/>
			<path class="st3" d="M80.6,81.9c-3.7-1.1-6-4.2-6.5-7.9c-0.3-1.8-0.2-3.7-0.5-5.5c-0.3-1.5-0.7-2.9-2.1-3.5
				c-0.3-0.1-0.8,0.2-0.5,0.4c1.6,1.1,1.5,3.7,1.6,5.4c0.1,2,0.2,4,0.9,5.9c1.1,3,3.7,5.2,6.8,6.1C81,82.9,81.3,82.1,80.6,81.9"/>
			<path class="st3" d="M87.4,39c2.1,0.6,4,1.8,6.1,2.2c1.6,0.4,3.4,0.4,5,0.2c1.6-0.2,3.1-0.7,4.3-1.8c0.7-0.6,1.3-1.4,1.9-2.2
				c0.6-0.8,1.3-1.7,1.5-2.6c0.1-0.6-0.7-0.6-1-0.3c-1.2,1.4-2,3.2-3.4,4.4c-1.2,1-2.7,1.5-4.2,1.6c-1.6,0.2-3.2,0-4.7-0.4
				c-1.8-0.5-3.5-1.5-5.3-1.9C87.1,38.1,86.7,38.8,87.4,39"/>
			<path class="st3" d="M184.1,90.5c-2.3,1.7-5.2,0-6.4-2.4c-1-2.1-0.3-4.7-0.6-7c-0.1-0.7-1.5-0.6-1.3,0.1c0.4,1.7,0,3.4,0.2,5
				c0.2,1.5,0.8,2.7,1.9,3.8c2,2,4.7,2.7,7.1,1C185.5,90.7,184.5,90.2,184.1,90.5"/>
			<path class="st3" d="M173.9,56.3c1,0.2,2,0.1,3,0.3c1,0.2,2.1,0.9,2.7,1.8c0.4,0.6,1.6,0,1-0.6c-0.9-0.7-1.5-1.6-2.7-1.9
				c-1.2-0.4-2.4-0.2-3.6-0.4C173.5,55.3,173.1,56.2,173.9,56.3"/>
			<path class="st3" d="M148.7,107.1c1.3-0.5,2.5-1.1,3.5-2c1-0.7,2-1.6,2.4-2.7c0.7-1.7,0.4-4.7-1.2-5.9c-0.3-0.2-1.3-0.1-1.1,0.5
				c0.3,0.8,0.8,1.4,1,2.3c0.2,0.9,0.2,1.9-0.1,2.8c-0.8,2-3.4,3.4-5.3,4.1C147.3,106.5,148.1,107.3,148.7,107.1"/>
			<path class="st3" d="M151,93.9c-2.8-1.2-6.4-1.6-7.6,1.8c-0.5,1.3-0.3,2.7-0.9,4c-1.2,2.6-3.8,3.9-6,5.5c-0.6,0.4,0.3,1,0.8,0.8
				c2.1-1,4.3-2.3,5.7-4.2c1.1-1.5,1.4-2.9,1.7-4.7c0.1-0.9,0.4-1.9,1.1-2.5c1.3-1.2,3.3-0.5,4.7,0.1C150.9,95,151.7,94.3,151,93.9"
				/>
			<path class="st3" d="M77.7,118.7c0.5-0.4,1.2-0.9,1.8-0.7c0.5,0.2,0.6,0.8,0.6,1.2c0,0.4,0.7,0.5,0.9,0.2c0.5-0.9-0.1-1.8-1-2.1
				c-1.1-0.4-2.2,0.2-3,0.8C76.6,118.6,77.3,119,77.7,118.7"/>
			<path class="st3" d="M90.4,113.9c1.3-0.2,2.5-0.1,3.3,1.1c0.5,0.7,0.7,1.6,1.2,2.2c0.2,0.3,0.5,0.5,0.7,0.8
				c0.4,0.7,0.1,1.2-0.3,1.8c-0.3,0.4-0.5,0.7-0.9,1c-1,0.7-2.6,0.3-3.8,0.5c-0.5,0.1-0.6,0.8,0,0.9c1.5,0.2,3.6,0.3,4.8-0.6
				c1.4-1,2.3-2.9,1.1-4.4c-0.4-0.5-0.7-0.9-1-1.5c-0.3-0.5-0.5-1.1-0.9-1.6c-1.1-1.3-2.9-1.4-4.5-1.2
				C89.3,113.2,89.7,114,90.4,113.9"/>
			<path class="st3" d="M115.3,111.7c-2.8-1-5,1.1-6.7,3c-1.1,1.3-2.4,2.4-3.8,3.3c-0.8,0.5-1.6,1-2.5,1.2c-0.6,0.1-1.2,0-1.8,0
				c-0.8,0-2,0.2-2.6-0.5c-0.4-0.5-0.9-1.1-1.2-1.7c-0.5-0.9-1-1.9-1.5-2.8c-0.8-1.6-0.7-3.7-0.5-5.4c0-0.4-0.8-0.4-0.9,0
				c-0.3,1.7-0.4,3.6,0.2,5.2c0.4,1,1,2.1,1.5,3.1c0.4,0.7,0.9,1.3,1.3,2c0.5,0.7,1,0.9,1.9,0.9c1,0.1,2.1,0.1,3.2,0.1
				c1.5-0.1,2.9-0.9,4.1-1.7c1.4-0.9,2.6-2,3.6-3.3c1.3-1.4,3-3.4,5.2-2.6C115.3,112.5,115.9,111.9,115.3,111.7"/>
			<path class="st3" d="M115.4,105c-1.1,1.1-2.1,2.3-2.2,4c0,1.1,0.3,2.6,1.2,3.2c0.2,0.2,0.5,0.2,0.8,0.4c0.4,0.2,0.6,0.5,1,0.7
				c0.6,0.4,1.4,0.5,2.2,0.6c1.8,0.1,3.1-0.7,4.4-1.9c0.6-0.6-0.6-1.2-1-0.6c-0.8,1.1-2.3,1.6-3.6,1.4c-0.7-0.1-1.2-0.4-1.8-0.8
				c-0.4-0.3-1-0.3-1.4-0.7c-0.5-0.6-0.8-1.8-0.7-2.5c0.1-1.4,0.9-2.5,1.8-3.4C116.6,105.1,115.7,104.7,115.4,105"/>
			<path class="st3" d="M192.9,59.8c0.4,2.1,0.4,4.1,0.2,6.1c-0.2,1.9-0.5,3.8,0.2,5.6c0.1,0.3,0.9,0.3,0.8-0.1
				c-0.3-2.1-0.1-4,0.1-6.1c0.2-1.9,0-3.9-0.5-5.8C193.6,59.2,192.8,59.4,192.9,59.8"/>
			<path class="st3" d="M187.3,104.8c1.2-1.9,5-4.5,3-7.1c-0.1-0.2-0.7-0.1-0.6,0.2c1.3,2.7-1.8,4.6-3,6.6
				C186.5,104.9,187.1,105.1,187.3,104.8"/>
			<path class="st3" d="M124.9,52.7c-2.9-0.5-4.5,2.1-4.7,4.6c-0.1,1-0.3,1.7-1,2.4c-0.5,0.5-1.1,1-1.7,1.4c-1.3,1-3.1,2.3-4.8,2.4
				c-1.1,0-0.8,1.4,0.2,1.1c1.5-0.4,2.8-0.8,4.1-1.6c1.1-0.7,2.2-1.6,3.1-2.5c1-1,1.2-2,1.3-3.4c0.2-1.7,1.1-4,3.2-3.7
				C125.2,53.5,125.6,52.8,124.9,52.7"/>
			<path class="st3" d="M120.9,59.7c2.5-0.3,5.1-1.2,6.2-3.7c0.2-0.4-0.5-0.5-0.7-0.3c-0.8,0.8-1.4,1.8-2.3,2.4
				c-1,0.7-2.2,0.8-3.4,1C120.1,59.1,120.5,59.7,120.9,59.7"/>
			<path class="st3" d="M125.3,84.4c0.8-2.5,1.5-5.2,0.9-7.9c-0.5-1.9-1.8-3.9-3.9-4.3c-0.4-0.1-1.2,0.4-0.6,0.8
				c1.7,1,2.8,2.1,3.3,4.1c0.6,2.4-0.1,4.8-0.7,7.1C124.1,84.7,125.1,84.9,125.3,84.4"/>
			<path class="st3" d="M125.6,77.3c1.5,0.8,1.6,2.4,1.9,3.9c0,0.2,0.4,0.2,0.4,0c0.3-1.7-0.5-3.5-2-4.3
				C125.6,76.6,125.1,77.1,125.6,77.3"/>
			<path class="st3" d="M130.7,100.4c0.3-0.3,0.7-0.5,1-0.8c0.1-0.1,0.3-0.3,0.4-0.4c0.2-0.2,0.4-0.5,0.6-0.6c0.7-0.4-0.6-1-0.6-0.3
				c0,0.4-0.6,0.8-0.9,1.1c-0.3,0.3-0.6,0.5-0.9,0.8C129.9,100.3,130.4,100.6,130.7,100.4"/>
			<path class="st3" d="M136.6,38.8c1.8,0.1,3.7,0.2,5.3,1.1c1.4,0.8,2.3,2.1,3.8,2.8c2.9,1.4,6.2,0.4,9-0.8
				c0.4-0.2,0.1-0.6-0.3-0.5c-3.4,1-6.9,2.3-9.9-0.3c-1.1-0.9-2.1-1.7-3.5-2.1c-1.4-0.4-2.9-0.5-4.4-0.5
				C136.2,38.3,136.2,38.8,136.6,38.8"/>
			<path class="st3" d="M47.4,67.4c-1.3,0-2.8-0.5-4,0.3c-1.3,0.8-2,2.2-2.8,3.5c-0.9,1.5-1,3.1-0.8,4.8c0.2,1.2,0.3,2.2,0.3,3.4
				c-0.1,1.1,0,2,0.6,3c0.2,0.3,0.9,0.1,0.7-0.2c-0.4-1-0.3-2-0.2-3.1c0.1-0.9,0-1.6-0.2-2.5c-0.3-1.7-0.5-3.4,0.4-4.9
				c0.6-1.1,1.3-2.3,2.3-3.1c1-0.9,2.4-0.4,3.7-0.4C48,68.2,48,67.4,47.4,67.4"/>
			<path class="st3" d="M38.8,89c0.9-0.9-0.1-2-0.3-3c-0.6-2,0-4.4,2.2-5c0.3-0.1,0.1-0.4-0.1-0.4c-1.4,0.2-2.7,1.3-2.9,2.8
				c-0.1,0.8-0.1,1.9,0.1,2.7c0.2,0.8,1.1,1.8,0.4,2.5C37.8,89,38.5,89.2,38.8,89"/>
			<path class="st3" d="M54.1,56.1c1.1,0,1.9-0.4,2.6-1.2c0.3-0.3,0.5-0.7,0.9-1.1c0.6-0.6,1.3-0.6,2.1-0.6c1-0.1,1.7-0.4,2.4-1.2
				c0.6-0.6,1.4-1.3,1.7-2.1c0.3-0.7,0.4-1.5,0.9-2.1c0.5-0.7,1.1-1.2,1.9-1.5c1.7-0.8,3.6-0.7,5.3-0.2c1.5,0.5,2.6,1.3,4.2,1.2
				c2.1-0.1,3.3-1.6,3.1-3.6c0-0.4-0.7-0.4-0.8,0c-0.1,1-0.3,2.1-1.2,2.7c-0.5,0.3-1.2,0.3-1.8,0.2c-0.2,0-0.8-0.2-0.8-0.2
				c-1.5-0.6-2.8-1.3-4.4-1.5c-2.4-0.3-5.1,0.5-6.6,2.6c-0.6,0.9-0.7,2.1-1.5,2.9c-0.6,0.7-1.3,1.7-2.3,1.9c-1.1,0.2-2.1,0-3.1,0.9
				c-0.9,0.8-1.3,2.1-2.7,2.1C53.5,55.3,53.4,56.1,54.1,56.1"/>
			<path class="st3" d="M59.8,76.5c-1.2,1.6-0.8,4.6,0.5,6.1c1.3,1.5,3.8,2.8,5.7,2.4c0.5-0.1,0.4-0.7-0.1-0.7
				c-1.6,0.1-3.7-1-4.6-2.2c-1-1.2-1.3-3.8-0.4-5.1C61.3,76.4,60.1,76.1,59.8,76.5"/>
			<path class="st3" d="M127,104.8c1.2-1.9,5-4.5,3-7.1c-0.1-0.2-0.7-0.1-0.6,0.2c1.3,2.7-1.8,4.6-3,6.6
				C126.2,104.9,126.9,105.1,127,104.8"/>
			<path class="st3" d="M54.2,100c-1.7,1.9-4.5,2.3-6.8,1.5c-2.6-0.9-4.9-2.9-6.7-4.8c-0.4-0.4-1.3,0-0.8,0.5c2.4,2.2,4.7,4.5,8,5.2
				c2.5,0.5,5.3,0,7.1-2C55.3,100,54.5,99.7,54.2,100"/>
			<path class="st3" d="M103.1,108.9c-1.2-2-4.3-3.9-3-6.6c0.1-0.3-0.4-0.4-0.6-0.2c-2.1,2.6,1.8,5.2,3,7.1
				C102.7,109.5,103.4,109.3,103.1,108.9"/>
			<path class="st4" d="M165.3,55.6c-1.2,0.6-2.6,0-3.5-0.9h0c0.6,1.2,0.6,2.7-0.4,3.6L165.3,55.6z"/>
			<path class="st3" d="M165.1,55.4c-0.8,0.3-1.6,0.2-2.3-0.3c-0.3-0.2-0.6-0.7-1-0.7c-0.2,0-0.5,0.1-0.4,0.4
				c0.5,1.1,0.6,2.4-0.3,3.3c-0.3,0.3,0.4,0.5,0.6,0.4c1.3-0.9,2.5-1.9,3.8-2.7c0.3-0.2-0.2-0.4-0.4-0.3c-1.3,0.9-2.7,1.7-4,2.6
				c0.2,0.1,0.4,0.2,0.6,0.4c1-1,1-2.6,0.4-3.8l-0.4,0.4h0c-0.1,0-0.2-0.1-0.3-0.1c1.1,1.1,2.6,1.6,4,1
				C166,55.7,165.5,55.2,165.1,55.4"/>
			<path class="st3" d="M145.4,47.3c0.7-0.5,1.6-1,1.7-1.9c0.2-1-0.4-1.9-0.6-2.8c-0.1-0.6-1.2-0.4-1,0.1c0.3,0.7,0.7,1.7,0.7,2.4
				c0,0.8-0.9,1.3-1.4,1.7C144.4,47.2,145.1,47.6,145.4,47.3"/>
			<path class="st5" d="M154.5,99.2c0,0,1.6-3.8,7-2.6"/>
			<path class="st5" d="M165.5,109.4c0,0,4.9-0.2,4.7-4.1c0,0-1.2-1.9,0-3.8c0,0,3.7-2.1,0.8-7.7c0,0-1.5-2.8-6.4-2.8
				c0,0-2.1,0.8-4.7,0c0,0-1.1-3.1-5.5-3.1"/>
			<path class="st5" d="M169.9,104.6c0,0,0.9-1.2,2.2-1.1c0,0,1.3,0,1.6-1.3"/>
			<path class="st5" d="M171.8,95.5c0,0,2,2.3,5.3,1.8c0,0,4.9-1.6,4.1-5.6c0,0-1.6-0.5-3.2-2.1c-2-2.1-1.1-5.1-4.8-6.8"/>
			<path class="st6" d="M152.2,75.3c0,0,2.8-4.5,7.1-2.7"/>
			<path class="st6" d="M147.7,93.5c0,0-2.7-1-1.8-3"/>
			<path class="st6" d="M90.4,33.4c0,0,0.1,4.8-6.7,6.8c0,0-6.7,1-9.3-3.3c0,0-0.6-2.6-5.1-3.6"/>
			<path class="st3" d="M73.7,25.6c1.4,0.6,2.8,0.8,4.3,0.2c1.4-0.6,2.5-1.9,3.6-2.9c2.6-2.5,5.6-3.6,9.3-3.2c0.6,0.1,1-0.7,0.3-0.8
				C88,18.2,84.8,19,82.2,21c-1,0.8-1.9,1.7-2.8,2.6c-1.6,1.5-3.1,2.2-5.2,1.3C73.8,24.7,73.1,25.3,73.7,25.6"/>
			<path class="st6" d="M79.9,23.9c0,0-2.4,2.7-2.5,4.3"/>
			<path class="st7" d="M106.8,18.3c0,0-3.5,5.2-10.9,3"/>
			<path class="st7" d="M103,21.1c0,0-3.2,4-3.6,6.4"/>
			<path class="st8" d="M75.2,46.9c0,0-3.5,2.6-1.8,4.9c0.8,1.1,2.8,2.2,2.7,4.9"/>
			<path class="st7" d="M60.9,74.9c0,0-0.1-2.2,1.4-3.9c0,0,3.3-1.6,2.5-6.6"/>
			<path class="st3" d="M109.7,76.4c1-1.1,1.6-2.4,1.7-3.8c0.2-1.6-0.2-2.9-0.7-4.4c-0.3-0.9-2.1-0.5-1.6,0.5c0.6,1,0.7,2.6,0.7,3.8
				c-0.1,1.3-0.5,2.5-1.4,3.4C107.8,76.4,109.2,76.9,109.7,76.4"/>
			<path class="st6" d="M50.2,92.7c0,0-4.1,3.4-8.6,0"/>
			<path class="st9" d="M69.8,97.6c0,0,0.1,1.7-9.3-0.2"/>
			<path class="st3" d="M158.4,25.9c1.9,0.8,3.7,1.8,5.7,2.3c1.4,0.4,3.1,0.3,4.4,1c1,0.5,1.5-1,0.4-1c-1,0-2-0.3-3-0.5
				c-0.5-0.1-0.9-0.1-1.4-0.3c-1.9-0.5-3.8-1.4-5.6-2.2C158.4,25.1,157.8,25.7,158.4,25.9"/>
			<path class="st3" d="M150,20.8c-2-0.6-4.2-1.2-5.9-2.4c-0.5-0.4-1.1-0.8-1.6-1.3c-0.8-0.7-1.9-1.2-2.6-2c-0.7-0.8-1.9,0.4-1,0.7
				c1.8,0.6,3.1,2.3,4.6,3.3c1.8,1.2,4.1,1.8,6.2,2.4C150.3,21.6,150.6,21,150,20.8"/>
		</g>
	</g>
</g>
</svg>
