<?xml version="1.0" encoding="utf-8"?>
<!-- Generator: Adobe Illustrator 22.0.1, SVG Export Plug-In . SVG Version: 6.00 Build 0)  -->
<svg version="1.1" xmlns="http://www.w3.org/2000/svg" xmlns:xlink="http://www.w3.org/1999/xlink" x="0px" y="0px"
	 viewBox="0 0 225 200" style="enable-background:new 0 0 225 200;" xml:space="preserve">
<style type="text/css">
	.st0{display:none;}
	.st1{display:inline;fill:url(#SVGID_1_);}
	.st2{clip-path:url(#SVGID_3_);}
	.st3{clip-path:url(#SVGID_5_);fill:none;stroke:#FFFFFF;stroke-width:2.0131;stroke-miterlimit:10;}
	.st4{clip-path:url(#SVGID_3_);fill:#FFFFFF;}
	.st5{clip-path:url(#SVGID_7_);fill:#FFFFFF;}
	.st6{clip-path:url(#SVGID_7_);fill:#231F20;}
	.st7{clip-path:url(#SVGID_7_);fill:none;stroke:#FFFFFF;stroke-width:1.0066;stroke-linecap:round;stroke-miterlimit:10;}
	.st8{clip-path:url(#SVGID_7_);fill:none;stroke:#FFFFFF;stroke-width:0.8053;stroke-linecap:round;stroke-miterlimit:10;}
	.st9{clip-path:url(#SVGID_7_);fill:none;stroke:#FFFFFF;stroke-width:0.7046;stroke-linecap:round;stroke-miterlimit:10;}
	.st10{clip-path:url(#SVGID_7_);fill:none;stroke:#FFFFFF;stroke-width:0.6039;stroke-linecap:round;stroke-miterlimit:10;}
	.st11{clip-path:url(#SVGID_7_);fill:none;stroke:#FFFFFF;stroke-width:0.5033;stroke-linecap:round;stroke-miterlimit:10;}
</style>
<g id="Layer_1" class="st0">
	<linearGradient id="SVGID_1_" gradientUnits="userSpaceOnUse" x1="112.5" y1="1" x2="112.5" y2="199">
		<stop  offset="0" style="stop-color:#FFFFFF"/>
		<stop  offset="0" style="stop-color:#CEEAFB"/>
		<stop  offset="0.8649" style="stop-color:#8FCFF5"/>
		<stop  offset="1" style="stop-color:#3FADEE"/>
		<stop  offset="1" style="stop-color:#0D98EA"/>
	</linearGradient>
	<path class="st1" d="M213.9,199H11.1c-5.5,0-10-4.5-10-10V11c0-5.5,4.5-10,10-10h202.8c5.5,0,10,4.5,10,10v178
		C223.9,194.5,219.4,199,213.9,199z"/>
</g>
<g id="Layer_2">
	<g>
		<g>
			<defs>
				<rect id="SVGID_2_" x="-80.8" y="-17.4" width="386.5" height="217.4"/>
			</defs>
			<clipPath id="SVGID_3_">
				<use xlink:href="#SVGID_2_"  style="overflow:visible;"/>
			</clipPath>
			<g class="st2">
				<defs>
					<rect id="SVGID_4_" x="-80.8" y="-17.4" width="386.5" height="217.4"/>
				</defs>
				<clipPath id="SVGID_5_">
					<use xlink:href="#SVGID_4_"  style="overflow:visible;"/>
				</clipPath>
				<path class="st3" d="M71.2,107c-1.4,0.4-5.7,0.9-5.7,0.9s-4.3,2.3-5.7,3c-1.9,1-2.5,1.5-4.6,2.1c-1.8,0.5-4.2,0.2-6.1,0
					c-1.7-0.2-5.4-2.9-6.8-3.9c-1.5-1.1-3.2-2.1-4.3-3.6c-1.1-1.5-3.6-2.3-5-3.4c-1.8-1.4-3.5-2.3-4.5-4.3
					c-0.9-1.8-6.1-9.4-5.4-14.8c0.6-4.9,5.5-12.2,7.3-15.5c3.6-6.4,6.9-14.7,12.8-20c2.5-2.3,12-8.3,12-8.3s8.5-7.8,12.1-10.2
					c2.5-1.6,6.4-3.5,10.6-5.2c4.4-1.8,10.6-5.9,16.1-6.1c5.9-0.2,4.4,0.7,10.7,0.3c4.1-0.3,6.8,2.4,14.2-0.7
					c4.2-1.7,3.9,1.3,8.5,0.6c8.5-1.3,11.6,4.2,15.9,5.3c3.9,1,11.6,1.8,14.2,2.7c5.7,2,6.9,5.5,11.8,8.9c4.4,3,13.7,8.9,18.6,14.7
					c5.6,6.5,5.4,12.1,7.5,17.1c1.9,4.7,5.5,15.4,5.3,20.5c-0.1,4.5-2.5,13.2-3.9,17.5c-0.8,2.6-2,8.1-3.6,10.3
					c-1.2,1.7-4.6,4.5-6.6,5c-3.4,0.8-11-0.9-16-2.3c-7.7-2.2-14.5,2.7-18.4-4.5c-3.8,0.2-5.3,5.8-14.5,4.8
					c-4.4-0.5-12.3,5.2-16.3,7.2c-5.7,2.9-16.9,8.9-23.1,10.1c-4,0.8-15.3-1.6-15.3-1.6s-8.8-2.4-11-4.8c-1.5-1.7-5.5-5.5-5.3-7.7
					c0.2-2.1,0.7-7.4,1.8-9.2L71.2,107z"/>
			</g>
			<polygon class="st4" points="133.4,75.3 135,75.2 135.8,74.8 137.4,73.9 138,73.6 139.6,73.6 141.5,73.3 139.4,72.2 138.2,71.5 
				137.5,70.8 137.3,70.1 137.1,69.1 137,67.9 136.8,66.2 135.3,70.6 133.4,73.9 132.6,74.9 			"/>
			<polygon class="st4" points="126.1,81.3 125.4,80.2 124.6,79.2 125.4,78.8 126.5,78.5 129,78.5 127.2,79.2 126.9,79.9 
				126.9,80.7 127.2,82.2 			"/>
			<polygon class="st4" points="152.7,78.9 153.3,79.3 153.5,79.6 153.9,79.8 154.3,79.9 154.7,79.9 155.1,79.9 155.9,79.7 
				156.4,79.6 156.8,79.6 155.8,80.2 155.2,80.7 154.7,81.2 154.2,81.8 153.8,82 153.7,81.1 153.5,80.3 153,79.6 			"/>
			<polygon class="st4" points="172.3,117.4 169.6,117.3 167.3,117 168.2,116.3 169.6,115.6 170.3,115.3 171.1,114.6 171.8,114.5 
				171.1,115.6 171,116.3 171.2,116.9 			"/>
			<polygon class="st4" points="154.7,110.6 154.3,111.6 153.9,112.6 153.9,113.6 154.1,114.6 154.3,115.6 152.7,114.1 151.6,113.1 
				152.7,112.6 			"/>
			<polygon class="st4" points="195.2,73.4 195.2,71.7 195.4,71 195.9,69.3 196.8,70.3 197.3,71.7 197.5,72.5 198,73.9 197.1,73.4 
				196.6,72.5 195.9,72.5 195.4,72.5 			"/>
			<polygon class="st4" points="147.2,53.4 147.2,52 147.1,51.3 147,50.6 146.7,50.2 146.1,49.4 145.3,48.8 144.3,47.9 143.3,47.4 
				142.3,46.7 139.9,45.7 141.9,45.9 142.8,46.1 144,46.6 144.7,47.2 145.7,48 146.4,48.6 147.2,49.1 147.7,49.6 147.8,49.9 
				148.2,51.3 148.2,52.7 			"/>
			<polygon class="st4" points="168.3,35.1 167.5,33.5 166.6,32.7 165.4,31.6 165,32.5 165.4,33.3 165.4,34.1 			"/>
			<polygon class="st4" points="172.6,59.1 172.6,59.9 172.7,61 173,61.7 171,61.5 			"/>
			<polygon class="st4" points="146.3,26 146.3,25.2 146.3,23.9 145,23.6 144.1,23.6 144.1,24.5 			"/>
			<polygon class="st4" points="111.5,18.9 114.4,18.7 113.6,19.9 112.5,20.9 111.9,20.9 			"/>
			<polygon class="st4" points="101.4,28.7 102.2,29.3 102.2,29.9 102.2,31.2 103.2,30 103.7,29.3 104.3,28.2 			"/>
			<polygon class="st4" points="79,34.1 79,33.3 78.4,32.9 79.8,32.1 81,31.2 			"/>
			<polygon class="st4" points="90.7,43.8 90.7,44.8 91.3,46.3 89.2,45.5 			"/>
			<polygon class="st4" points="74.7,55.8 74.9,54.5 74.6,53.8 73.6,52.5 75,53.1 76,53.6 76.8,53.8 			"/>
			<polygon class="st4" points="131.8,38.3 132.1,39.2 132.1,40.3 133.3,39.3 134.1,38.3 			"/>
			<polygon class="st4" points="141,33.6 137.7,32.9 139.7,34.4 			"/>
			<polygon class="st4" points="192.4,106 193.5,103.6 191.9,105.2 			"/>
			<polygon class="st4" points="146.1,101.2 147.5,100.7 149.3,100.4 147.2,98.6 146.7,99.9 			"/>
			<polygon class="st4" points="158.7,103.8 156.6,103.9 154.5,103.5 155.4,104.8 155.9,106.2 			"/>
			<polygon class="st4" points="173.5,110.4 172.7,109.7 172.3,109.2 172.3,107.7 171.6,108.7 171.1,109.7 171.4,110.9 171.6,111.6 
				172.3,110.9 			"/>
			<polygon class="st4" points="173.8,105.2 174.4,104.5 175,104.3 176.1,104.2 174.8,103.5 173.7,103.2 173.7,103.8 			"/>
			<polygon class="st4" points="175.9,90.2 176.9,90.2 177.6,89.7 178.2,89.1 178.2,90.8 178.2,91.7 177.3,91.7 			"/>
			<g class="st2">
				<defs>
					<rect id="SVGID_6_" x="-80.8" y="-17.4" width="386.5" height="217.4"/>
				</defs>
				<clipPath id="SVGID_7_">
					<use xlink:href="#SVGID_6_"  style="overflow:visible;"/>
				</clipPath>
				<path class="st5" d="M71.7,107.6c2.2-4,5.4-7.5,9.2-10.1c1.9-1.3,4-2.7,6.4-2.6c1.3,0,2.5,0.5,3.6,1c1.1,0.5,2.4,1.1,3.4,1.8
					c1,0.8,2.8-0.6,1.4-1.3c-1.3-0.6-2.4-1.5-3.7-2.1c-1.2-0.6-2.6-1-3.9-1.1c-2.9-0.3-5.5,0.9-7.8,2.4c-4.4,2.9-8,7-10.5,11.6
					C69.2,108.2,71.2,108.5,71.7,107.6"/>
				<path class="st5" d="M91.7,96.2c2.8,0.5,5.8,0.1,8.3-1.1c1.2-0.6,2.4-1.4,3.4-2.3c1.2-1.2,2.1-2.7,3-4.1
					c1.9-2.7,4.7-4.8,7.4-6.7c1.4-1,2.9-1.8,4.6-2.1c1.8-0.3,3.7,0.2,5.5,0.1c3.8-0.3,7.1-2.3,10.1-4.5c0.9-0.7-0.5-1.3-1.2-0.9
					c-2.8,1.7-5.7,3.8-9,4c-1.7,0.1-3.5-0.3-5.2-0.1c-1.4,0.2-2.8,0.6-4.1,1.3c-2.7,1.4-5.3,3.5-7.5,5.6c-2.3,2.2-3.4,5.3-5.9,7.3
					c-2.5,2-5.8,3-9,2.4C91.2,94.8,90.6,96,91.7,96.2"/>
				<path class="st5" d="M133.6,75.8c1.9-0.8,2.8-2.9,3.2-4.9c0.4-2,0.6-5.5-1.2-6.9c-0.3-0.2-1.1-0.2-1.2,0.2
					c-0.3,0.9,0,1.7,0.2,2.6c0.2,1,0.2,2.1,0.1,3.1c-0.1,1.4-0.5,3.7-2,4.5C131.4,75.1,132.7,76.3,133.6,75.8"/>
				<path class="st5" d="M135.2,75.2c1-0.3,1.8-0.9,2.8-1.2c0.9-0.3,1.7,0,2.5,0.5c1,0.6,2.4,1.4,3.3,0.3c0.3-0.4-0.2-0.6-0.5-0.7
					c-0.5,0-0.9-0.4-1.4-0.7c-0.6-0.4-1.3-0.8-2-0.9c-0.8-0.2-1.6-0.2-2.4,0.1c-1,0.3-1.8,1-2.7,1.3
					C133.7,74.3,134.3,75.5,135.2,75.2"/>
				<path class="st5" d="M99.8,76.2c3.4-3.4,4.3-8.2,5.6-12.7c0.7-2.3,1.5-4.6,2.9-6.6c0.8-1.1,1.7-2.1,2.9-2.7
					c1.1-0.6,2.4-0.5,3.7-0.6c1-0.1,2.1-0.2,3-0.9c0.7-0.5,0.9-1.1,1.3-1.8c1.1-2.4,2.4-4.7,2.8-7.3c0.4-2.4-0.4-4.8-1.8-6.7
					c-0.7-1-1.6-1.8-2.5-2.5c-1-0.7-1.9-1.3-2.2-2.6c-0.4-2.2,1.2-4.7,2.1-6.6c1.4-2.7,3.8-4.5,6.5-5.6c0.8-0.3,0.1-1.1-0.5-1
					c-4.9,1-7.7,5.4-9.4,9.8c-0.7,1.9-0.9,4,0.5,5.6c0.9,0.9,2.1,1.5,3,2.4c0.9,0.9,1.6,2,2,3.2c1,2.7,0.3,5.2-0.8,7.8
					c-0.5,1.2-1.1,2.3-1.6,3.5c-0.4,1-1,1.3-2.1,1.5c-1.2,0.2-2.5,0.1-3.7,0.4c-1.2,0.3-2.3,1-3.1,1.9c-1.7,1.6-2.8,3.8-3.6,6
					c-1.8,5.1-2.3,11-6.2,15C98,76.3,99.4,76.7,99.8,76.2"/>
				<path class="st5" d="M160.7,68.5c2.4-2.6,5.7-5.4,9.2-6.4c3.1-0.9,5.6,1.9,8.7,1.3c0.6-0.1,0.4-0.9-0.2-0.8
					c-1.8,0-3.1-0.6-4.8-1.1c-1.6-0.5-3.1-0.5-4.7,0c-3.5,1.3-6.7,3.9-9.2,6.7C159.5,68.5,160.4,68.8,160.7,68.5"/>
				<path class="st5" d="M167.8,50.6c0.3,1.3,1,2.3,2,3.1c0.9,0.7,1.9,1.3,2.3,2.4c0.7,2.2-0.2,5-2.8,5.3c-0.6,0-0.6,0.7,0,0.7
					c2.8,0,4.3-2.4,4-5.1c-0.1-1.1-0.6-2-1.4-2.8c-1.3-1.2-2.6-1.9-3-3.8C168.7,49.9,167.6,50,167.8,50.6"/>
				<path class="st5" d="M127,35.2c0.7,1.2,1.4,2.3,2.7,2.9c1.4,0.6,2.8,0.4,4.2,0.6c0.9,0.1,0.8-1,0-0.8c-1.2,0.3-2.7,0.2-3.8-0.3
					c-1.1-0.5-1.8-1.6-2.4-2.7C127.6,34.5,126.8,34.8,127,35.2"/>
				<path class="st5" d="M166.7,48.2c-1-0.5-1.8-1.2-2.2-2.3c-0.3-0.9-0.4-1.8-0.7-2.6c-1.2-3.2-4.8-5.2-7.8-6.3
					c-1.9-0.7-4.1-0.5-5.9-1.7c-2-1.3-4.3-1.6-6.6-2.1c-1.2-0.3-2.3-0.1-3.6,0.2c-0.8,0.2-1.1,1.4-1.6,2.1c-0.6,0.8-1.4,1.4-2.4,1.8
					c-0.5,0.2-1.1,0.2-1.6,0.4c-0.5,0.2-0.9,0.8-1.3,1.2c-0.6,0.7-1,1.4-1.5,2.2c-0.7,1-1.6,1.6-2.8,2.1c-0.5,0.2,0,0.7,0.4,0.5
					c1.5-0.5,2.6-1.3,3.5-2.6c0.4-0.6,0.7-1.1,1.2-1.6c0.3-0.4,0.7-0.8,1.2-1c0.4-0.2,0.8-0.2,1.2-0.3c1.9-0.7,3.5-2.3,4.2-4.2
					c-0.1,0.1-0.3,0.2-0.5,0.3c0.8-0.2,1.6-0.5,2.4-0.4c1.2,0.1,2.5,0.4,3.7,0.7c0.9,0.2,1.9,0.6,2.7,1.1c0.6,0.3,1.1,0.7,1.7,0.9
					c1.3,0.4,2.6,0.5,3.9,0.8c1.6,0.4,3.2,1.3,4.6,2.2c1,0.6,1.9,1.3,2.6,2.3c0.8,1.1,1.1,2.3,1.4,3.6c0.4,1.7,1.5,2.7,3,3.4
					C166.6,49.4,167.4,48.6,166.7,48.2"/>
				<path class="st5" d="M140.1,34.2c-0.6-0.6-1.2-1.1-2-1.5c-0.4-0.2-0.8-0.4-1.2-0.5c-0.5-0.2-1-0.2-1.5-0.5
					c-0.9-0.5-1.4,1.1-0.2,0.9c0.6-0.1,1.5,0.3,2,0.6c0.7,0.4,1.3,0.8,1.9,1.4C139.6,34.9,140.5,34.6,140.1,34.2"/>
				<path class="st5" d="M175,66.9c2,0,3.9-0.8,5.8-1.2c1-0.2,1.9-0.4,2.8-0.1c1.5,0.5,2.8,1.4,3.5,2.8c0.7,1.4,0.8,3,0.8,4.5
					c0.1,1.8-0.1,3.7-0.5,5.4c-0.3,1.6-0.8,3.2-1.1,4.8c-0.2,1.2-0.5,2.3-0.2,3.4c0.3,1.2,1,2.3,1.5,3.4c0.5,0.9,1.2,2.1,0.7,3.1
					c-0.3,0.6,1,0.8,1.2,0.3c0.7-1.9-1.1-4.2-1.8-5.9c-0.6-1.5-0.5-2.6-0.2-4.2c0.4-1.7,0.9-3.5,1.2-5.2c0.6-3.2,1-7.3-0.7-10.2
					c-1.1-2-3.7-3.5-6-3.4c-2.5,0.2-4.8,1.4-7.3,1.5C174.2,66,174.2,66.9,175,66.9"/>
				<path class="st5" d="M195.5,87.8c-0.7,1.6-1.3,3.3-1.1,5.2c0.3,1.9,0.7,3.7,0.3,5.6c-0.4,1.9-1.2,3.6-2.5,5
					c-1.3,1.4-2.8,2.3-4.6,3.1c-0.4,0.2,0,0.6,0.3,0.5c3.4-0.8,6.3-3.8,7.3-7.1c0.6-1.7,0.7-3.6,0.3-5.4c-0.2-1.1-0.5-2.1-0.4-3.2
					c0.1-1.2,0.6-2.3,1-3.4C196.5,87.6,195.7,87.4,195.5,87.8"/>
				<path class="st5" d="M90.7,107.4c5.2,4.2,13.6,3.2,16.9-2.9c0.2-0.4-0.6-0.5-0.7-0.2c-1.7,2.4-3.9,4.2-6.8,4.8
					c-3.1,0.7-6.3-0.2-8.7-2.2C91,106.7,90.2,107.1,90.7,107.4"/>
				<path class="st5" d="M93.6,109.3c-0.7,2.8-3.5,4-6.2,4.2c-2.6,0.2-5.7-0.5-8.2,0.8c-1.9,0.9-2.9,3.1-2.5,5.1
					c0.2,1,0.9,2,1.6,2.7c0.8,0.9,2.1,1.6,2.7,2.7c0.4,0.7,1.9,0,1.1-0.7c-0.5-0.4-0.8-1-1.2-1.4c-0.3-0.4-0.7-0.7-1-1.1
					c-0.8-0.8-1.4-1.8-1.5-2.9c-0.1-1.1,0.4-2.3,1.2-3c1.1-1,2.7-1,4-1c4-0.1,9.9-0.3,11.1-5.2C94.8,108.9,93.7,108.8,93.6,109.3"/>
				<path class="st5" d="M105,102.3c2.5,3.8,8.2,2.1,11.3,0.3c0.3-0.2-0.1-0.4-0.3-0.4c-3.1,0.9-8,3.3-10.4-0.2
					C105.5,101.7,104.8,101.9,105,102.3"/>
				<path class="st5" d="M113.1,98.9c3,4,8.9,5.5,13.4,3.2c5.3-2.7,8.4-11.4,15.3-10.2c0.5,0.1,1.1-0.5,0.4-0.8
					c-6.1-2-10.1,4.7-13.9,8.2c-2.1,1.9-4.5,3-7.3,2.8c-2.7-0.2-5.3-1.5-6.9-3.7C113.8,98,112.7,98.3,113.1,98.9"/>
				<path class="st5" d="M147.8,92c5.4-2,9-9.4,4.5-14c-0.5-0.5-1.5,0.2-0.8,0.6c2.5,1.3,2.2,5.3,1.3,7.5c-1,2.5-3,4.4-5.5,5.4
					C146.8,91.7,147.3,92.2,147.8,92"/>
				<path class="st5" d="M69.9,92.4c1.4,0.9,1.7,2.2,2,3.7c0.2,1.1,0.6,1.8,1.5,2.4c1,0.6,2.1,0.9,3.3,0.9c1.3,0,2.1-0.6,3.1-1.4
					c1.2-1-1.6-2-1.7-0.5c-0.1,0.8-1.8,0.6-2.3,0.5c-0.7-0.2-1.6-0.5-2-1.1c-0.4-0.8-0.4-1.9-0.7-2.7c-0.4-1.1-1.1-2-2.1-2.6
					c-0.3-0.2-0.8-0.3-1.2,0C69.6,91.7,69.5,92.2,69.9,92.4"/>
				<path class="st5" d="M75.7,99.9c-1.3,1.3-3.4,3.4-5.5,3.1c-0.7-0.1-1.2-0.5-1.6-1c-0.6-0.5-1.2-0.8-1.9-1.2c-1-0.5-2-1-3-1.4
					c-1-0.4-1.9-0.3-2.9-0.3c-0.7,0-1.3,0-2,0c-0.8,0.1-1.6,0.3-2.4,0.5c-1,0.2-2,0.3-3,0.1c-1.3-0.3-2-1.4-2.5-2.5
					c-0.2-0.5-1.4-0.4-1.2,0.2c0.7,2.2,2.5,3.4,4.8,3.4c1.8,0,3.6-0.8,5.4-0.8c1.1,0,2.2-0.2,3.3,0.2c1.4,0.5,2.9,1.1,4.1,1.9
					c1.1,0.7,1.8,1.6,3.2,1.6c2.5,0.1,4.6-1.9,6.2-3.6C77.1,99.8,76.1,99.5,75.7,99.9"/>
				<path class="st5" d="M55.1,113.4c1,0,1-0.8,0-0.8C54.2,112.6,54.2,113.4,55.1,113.4"/>
				<path class="st5" d="M67,107c-1.6,0-3.4,0.1-5-0.2c-0.7-0.1-0.7,0.8,0,0.7c1.6-0.2,3.3,0,5,0C67.4,107.5,67.4,107,67,107"/>
				<path class="st5" d="M62.2,108.5c-0.9-0.1-1.8-0.1-2.7-0.2c-0.5-0.1-0.7,0.6-0.1,0.6c0.9,0,1.9,0.1,2.8,0.2
					C62.6,109.1,62.6,108.5,62.2,108.5"/>
				<path class="st5" d="M32.5,94.4c-1.2-1.2-2-3.5-2.1-5.2c-0.1-1.4,0.8-2.5,1.8-3.4c0.9-0.8,1.9-0.5,3-0.8
					c0.4-0.1,0.3-0.6-0.1-0.5c-1.1,0.1-2.2-0.2-3.1,0.4c-1.1,0.8-2.2,2.1-2.4,3.4c-0.2,1.1,0.1,2.2,0.5,3.3c0.4,1.1,0.8,2.3,1.7,3.1
					C32,95.1,32.9,94.8,32.5,94.4"/>
				<path class="st5" d="M31.5,86c-1.8-1.7-1.1-4.8-0.3-6.8c0.9-2.2,2.5-4.4,4.3-6c0.5-0.4-0.4-0.9-0.8-0.4c-1.8,2.3-3.8,4.2-4.7,7
					c-0.8,2.2-1,5,0.8,6.7C31.1,86.8,31.9,86.4,31.5,86"/>
				<path class="st5" d="M63.3,36.8c-0.3,2.3-0.6,4.7-2.4,6.4c-1.9,1.8-4.5,2.7-6.7,4.2c-2.2,1.6-3.8,3.7-5.4,5.9
					c-1.5,2.1-2.1,4.1-1.6,6.7c0.1,0.4,1.1,0.4,1.1-0.1c-0.1-1.3-0.1-2.6,0.3-3.9c0.4-1.2,1.2-2.1,2-3.1c0.9-1.2,1.7-2.4,2.7-3.4
					c1-0.9,2.1-1.7,3.2-2.4c2.1-1.3,4.6-2.3,6-4.3c1.3-1.7,1.5-4,1.7-6C64.4,36.3,63.4,36.3,63.3,36.8"/>
				<path class="st5" d="M53.1,48.5c-1.5,1.6-3,3.3-4.8,4.5c-0.9,0.7-1.9,1.2-3,1.7c-0.9,0.4-1.8,0.8-2.5,1.6
					c-1.1,1.2-1.6,2.9-2.1,4.4c-0.5,1.5-0.9,3.1-1,4.8c0,0.5,0.9,0.5,1,0c0.2-1.6,0.7-3.2,1.1-4.7c0.5-1.5,1-3.4,2.2-4.4
					c0.9-0.7,2.2-1.1,3.2-1.7c0.8-0.5,1.6-1,2.3-1.6c1.6-1.3,3-2.8,4.3-4.3C54.3,48.4,53.4,48.1,53.1,48.5"/>
				<path class="st5" d="M104.9,22.3c2.7,0.6,5.4,0.4,7.8-1c2.1-1.2,4.3-3.2,6.9-3.2c1.1,0,0.7-1.4-0.4-1c-1.2,0.4-2.4,0.7-3.5,1.3
					c-1,0.5-1.9,1.2-2.8,1.7c-2.5,1.6-4.9,2-7.8,1.5C104.6,21.5,104.3,22.2,104.9,22.3"/>
				<path class="st5" d="M92.2,47.1c-2,1.5-1.2,4,0,5.7c0.8,1.1,1.9,2.1,2.4,3.4c0.7,1.6,0.2,3.2-0.8,4.5c-0.9,1.2-2,2.1-3,3.1
					c-1,1-1.8,2.1-2.4,3.4c-0.5,0.9-0.8,1.8-1.1,2.7c-0.2,0.7-0.6,1.5-0.7,2.3c-0.2,1.3,0.1,2.9,0.7,4c0.3,0.6,0.6,1.1,0.8,1.7
					c0.3,0.9,0.2,1.7-0.3,2.6c-0.3,0.6,1.1,0.9,1.3,0.3c0.4-1.4,0.3-2.8-0.3-4.1c-0.7-1.4-1.4-3.2-0.8-4.9c0.8-2.5,1.8-5,3.5-7
					c2-2.3,5.5-4.6,4.5-8.2c-0.5-1.6-1.7-2.8-2.7-4.1c-1-1.4-2-3.7-0.3-4.9C93.4,47.2,92.6,46.8,92.2,47.1"/>
				<path class="st5" d="M86.1,93.6c-2-1.4-3.4-4.1-2.8-6.6c0.3-1.1,0.7-2.1,0.9-3.2c0.2-0.9,0.1-1.7,0.2-2.5
					c0.1-1.5-2.9-0.6-1.9,0.4c0.6,0.7-0.2,2.3-0.4,3c-0.3,1-0.7,2-0.7,3c-0.1,2.7,1.4,5.3,3.5,6.8C85.6,95,87,94.2,86.1,93.6"/>
				<path class="st5" d="M82.3,88.8c-3.7-1.1-6-4.2-6.5-7.9c-0.3-1.8-0.2-3.7-0.5-5.5c-0.3-1.5-0.7-2.9-2.1-3.5
					c-0.3-0.1-0.8,0.2-0.5,0.4c1.6,1.1,1.5,3.7,1.6,5.4c0.1,2,0.2,4,0.9,5.9c1.1,3,3.7,5.2,6.8,6.1C82.6,89.8,83,89,82.3,88.8"/>
				<path class="st5" d="M89,45.9c2.1,0.6,4,1.8,6.1,2.2c1.6,0.4,3.4,0.4,5,0.2c1.6-0.2,3.1-0.7,4.3-1.8c0.7-0.6,1.3-1.4,1.9-2.2
					c0.6-0.8,1.3-1.7,1.5-2.6c0.1-0.6-0.7-0.6-1-0.3c-1.2,1.4-2,3.2-3.4,4.4c-1.2,1-2.7,1.5-4.2,1.6c-1.6,0.2-3.2,0-4.7-0.4
					c-1.8-0.5-3.5-1.5-5.3-1.9C88.7,45,88.3,45.8,89,45.9"/>
				<path class="st5" d="M185.7,97.4c-2.3,1.7-5.2,0-6.4-2.4c-1-2.1-0.3-4.7-0.6-7c-0.1-0.7-1.5-0.6-1.3,0.1c0.4,1.7,0,3.4,0.2,5
					c0.2,1.5,0.8,2.7,1.9,3.8c2,2,4.7,2.7,7.1,1C187.1,97.6,186.2,97.1,185.7,97.4"/>
				<path class="st5" d="M175.5,63.2c1,0.2,2,0.1,3,0.3c1,0.2,2.1,0.9,2.7,1.8c0.4,0.6,1.6,0,1-0.6c-0.9-0.7-1.5-1.6-2.7-1.9
					c-1.2-0.4-2.4-0.2-3.6-0.4C175.2,62.2,174.8,63.1,175.5,63.2"/>
				<path class="st5" d="M150.4,114c1.3-0.5,2.5-1.1,3.5-2c1-0.7,2-1.6,2.4-2.7c0.7-1.7,0.4-4.7-1.2-5.9c-0.3-0.2-1.3-0.1-1.1,0.5
					c0.3,0.8,0.8,1.4,1,2.3c0.2,0.9,0.2,1.9-0.1,2.8c-0.8,2-3.4,3.4-5.3,4.1C149,113.5,149.8,114.2,150.4,114"/>
				<path class="st5" d="M152.6,100.9c-2.8-1.2-6.4-1.6-7.6,1.8c-0.5,1.3-0.3,2.7-0.9,4c-1.2,2.6-3.8,3.9-6,5.5
					c-0.6,0.4,0.3,1,0.8,0.8c2.1-1,4.3-2.3,5.7-4.2c1.1-1.5,1.4-2.9,1.7-4.7c0.1-0.9,0.4-1.9,1.1-2.5c1.3-1.2,3.3-0.5,4.7,0.1
					C152.6,102,153.4,101.2,152.6,100.9"/>
				<path class="st5" d="M79.3,125.6c0.5-0.4,1.2-0.9,1.8-0.7c0.5,0.2,0.6,0.8,0.6,1.2c0,0.4,0.7,0.5,0.9,0.2c0.5-0.9-0.1-1.8-1-2.1
					c-1.1-0.4-2.2,0.2-3,0.8C78.2,125.5,79,125.9,79.3,125.6"/>
				<path class="st5" d="M92.1,120.8c1.3-0.2,2.5-0.1,3.3,1.1c0.5,0.7,0.7,1.6,1.2,2.2c0.2,0.3,0.5,0.5,0.7,0.8
					c0.4,0.7,0.1,1.2-0.3,1.8c-0.3,0.4-0.5,0.7-0.9,1c-1,0.7-2.6,0.3-3.8,0.5c-0.5,0.1-0.6,0.8,0,0.9c1.5,0.2,3.6,0.3,4.8-0.6
					c1.4-1,2.3-2.9,1.1-4.4c-0.4-0.5-0.7-0.9-1-1.5c-0.3-0.5-0.5-1.1-0.9-1.6c-1.1-1.3-2.9-1.4-4.5-1.2
					C90.9,120.1,91.4,120.9,92.1,120.8"/>
				<path class="st5" d="M117,118.6c-2.8-1-5,1.1-6.7,3c-1.1,1.3-2.4,2.4-3.8,3.3c-0.8,0.5-1.6,1-2.5,1.2c-0.6,0.1-1.2,0-1.8,0
					c-0.8,0-2,0.2-2.6-0.5c-0.4-0.5-0.9-1.1-1.2-1.7c-0.5-0.9-1-1.9-1.5-2.8c-0.8-1.6-0.7-3.7-0.5-5.4c0-0.4-0.8-0.4-0.9,0
					c-0.3,1.7-0.4,3.6,0.2,5.2c0.4,1,1,2.1,1.5,3.1c0.4,0.7,0.9,1.3,1.3,2c0.5,0.7,1,0.9,1.9,0.9c1,0.1,2.1,0.1,3.2,0.1
					c1.5-0.1,2.9-0.9,4.1-1.7c1.4-0.9,2.6-2,3.6-3.3c1.3-1.4,3-3.4,5.2-2.6C116.9,119.4,117.6,118.8,117,118.6"/>
				<path class="st5" d="M117,111.9c-1.1,1.1-2.1,2.3-2.2,4c0,1.1,0.3,2.6,1.2,3.2c0.2,0.2,0.5,0.2,0.8,0.4c0.4,0.2,0.6,0.5,1,0.7
					c0.6,0.4,1.4,0.5,2.2,0.6c1.8,0.1,3.1-0.7,4.4-1.9c0.6-0.6-0.6-1.2-1-0.6c-0.8,1.1-2.3,1.6-3.6,1.4c-0.7-0.1-1.2-0.4-1.8-0.8
					c-0.4-0.3-1-0.3-1.4-0.7c-0.5-0.6-0.8-1.8-0.7-2.5c0.1-1.4,0.9-2.5,1.8-3.4C118.2,112,117.3,111.7,117,111.9"/>
				<path class="st5" d="M194.6,66.7c0.4,2.1,0.4,4.1,0.2,6.1c-0.2,1.9-0.5,3.8,0.2,5.6c0.1,0.3,0.9,0.3,0.8-0.1
					c-0.3-2.1-0.1-4,0.1-6.1c0.2-1.9,0-3.9-0.5-5.8C195.3,66.2,194.5,66.3,194.6,66.7"/>
				<path class="st5" d="M189,111.7c1.2-1.9,5-4.5,3-7.1c-0.1-0.2-0.7-0.1-0.6,0.2c1.3,2.7-1.8,4.6-3,6.6
					C188.1,111.8,188.8,112,189,111.7"/>
				<path class="st5" d="M126.5,59.6c-2.9-0.5-4.5,2.1-4.7,4.6c-0.1,1-0.3,1.7-1,2.4c-0.5,0.5-1.1,1-1.7,1.4c-1.3,1-3.1,2.3-4.8,2.4
					c-1.1,0-0.8,1.4,0.2,1.1c1.5-0.4,2.8-0.8,4.1-1.6c1.1-0.7,2.2-1.6,3.1-2.5c1-1,1.2-2,1.3-3.4c0.2-1.7,1.1-4,3.2-3.7
					C126.9,60.5,127.2,59.7,126.5,59.6"/>
				<path class="st5" d="M122.6,66.6c2.5-0.3,5.1-1.2,6.2-3.7c0.2-0.4-0.5-0.5-0.7-0.3c-0.8,0.8-1.4,1.8-2.3,2.4
					c-1,0.7-2.2,0.8-3.4,1C121.8,66,122.1,66.6,122.6,66.6"/>
				<path class="st5" d="M126.9,91.3c0.8-2.5,1.5-5.2,0.9-7.9c-0.5-1.9-1.8-3.9-3.9-4.3c-0.4-0.1-1.2,0.4-0.6,0.8
					c1.7,1,2.8,2.1,3.3,4.1c0.6,2.4-0.1,4.8-0.7,7.1C125.7,91.6,126.8,91.8,126.9,91.3"/>
				<path class="st5" d="M127.2,84.2c1.5,0.8,1.6,2.4,1.9,3.9c0,0.2,0.4,0.2,0.4,0c0.3-1.7-0.5-3.5-2-4.3
					C127.3,83.6,126.8,84,127.2,84.2"/>
				<path class="st5" d="M132.3,107.3c0.3-0.3,0.7-0.5,1-0.8c0.1-0.1,0.3-0.3,0.4-0.4c0.2-0.2,0.4-0.5,0.6-0.6
					c0.7-0.4-0.6-1-0.6-0.3c0,0.4-0.6,0.8-0.9,1.1c-0.3,0.3-0.6,0.5-0.9,0.8C131.6,107.2,132.1,107.5,132.3,107.3"/>
				<path class="st5" d="M138.3,45.7c1.8,0.1,3.7,0.2,5.3,1.1c1.4,0.8,2.3,2.1,3.8,2.8c2.9,1.4,6.2,0.4,9-0.8
					c0.4-0.2,0.1-0.6-0.3-0.5c-3.4,1-6.9,2.3-9.9-0.3c-1.1-0.9-2.1-1.7-3.5-2.1c-1.4-0.4-2.9-0.5-4.4-0.5
					C137.9,45.3,137.9,45.7,138.3,45.7"/>
				<path class="st5" d="M49.1,74.3c-1.3,0-2.8-0.5-4,0.3c-1.3,0.8-2,2.2-2.8,3.5c-0.9,1.5-1,3.1-0.8,4.8c0.2,1.2,0.3,2.2,0.3,3.4
					c-0.1,1.1,0,2,0.6,3c0.2,0.3,0.9,0.1,0.7-0.2c-0.4-1-0.3-2-0.2-3.1c0.1-0.9,0-1.6-0.2-2.5c-0.3-1.7-0.5-3.4,0.4-4.9
					c0.6-1.1,1.3-2.3,2.3-3.1c1-0.9,2.4-0.4,3.7-0.4C49.7,75.1,49.7,74.3,49.1,74.3"/>
				<path class="st5" d="M40.5,95.9c0.9-0.9-0.1-2-0.3-3c-0.6-2,0-4.4,2.2-5c0.3-0.1,0.1-0.4-0.1-0.4c-1.4,0.2-2.7,1.3-2.9,2.8
					c-0.1,0.8-0.1,1.9,0.1,2.7c0.2,0.8,1.1,1.8,0.4,2.5C39.5,95.9,40.2,96.2,40.5,95.9"/>
				<path class="st5" d="M55.8,63c1.1,0,1.9-0.4,2.6-1.2c0.3-0.3,0.5-0.7,0.9-1.1c0.6-0.6,1.3-0.6,2.1-0.6c1-0.1,1.7-0.4,2.4-1.2
					c0.6-0.6,1.4-1.3,1.7-2.1c0.3-0.7,0.4-1.5,0.9-2.1c0.5-0.7,1.1-1.2,1.9-1.5c1.7-0.8,3.6-0.7,5.3-0.2c1.5,0.5,2.6,1.3,4.2,1.2
					c2.1-0.1,3.3-1.6,3.1-3.6c0-0.4-0.7-0.4-0.8,0c-0.1,1-0.3,2.1-1.2,2.7c-0.5,0.3-1.2,0.3-1.8,0.2c-0.2,0-0.8-0.2-0.8-0.2
					c-1.5-0.6-2.8-1.3-4.4-1.5c-2.4-0.3-5.1,0.5-6.6,2.6c-0.6,0.9-0.7,2.1-1.5,2.9c-0.6,0.7-1.3,1.7-2.3,1.9c-1.1,0.2-2.1,0-3.1,0.9
					c-0.9,0.8-1.3,2.1-2.7,2.1C55.1,62.2,55.1,63,55.8,63"/>
				<path class="st5" d="M61.4,83.4c-1.2,1.6-0.8,4.6,0.5,6.1c1.3,1.5,3.8,2.8,5.7,2.4c0.5-0.1,0.4-0.7-0.1-0.7
					c-1.6,0.1-3.7-1-4.6-2.2c-1-1.2-1.3-3.8-0.4-5.1C62.9,83.3,61.8,83,61.4,83.4"/>
				<path class="st5" d="M128.7,111.7c1.2-1.9,5-4.5,3-7.1c-0.1-0.2-0.7-0.1-0.6,0.2c1.3,2.7-1.8,4.6-3,6.6
					C127.9,111.8,128.5,112,128.7,111.7"/>
				<path class="st5" d="M55.9,106.9c-1.7,1.9-4.5,2.3-6.8,1.5c-2.6-0.9-4.9-2.9-6.7-4.8c-0.4-0.4-1.3,0-0.8,0.5
					c2.4,2.2,4.7,4.5,8,5.2c2.5,0.5,5.3,0,7.1-2C56.9,106.9,56.1,106.6,55.9,106.9"/>
				<path class="st5" d="M104.8,115.8c-1.2-2-4.3-3.9-3-6.6c0.1-0.3-0.4-0.4-0.6-0.2c-2.1,2.6,1.8,5.2,3,7.1
					C104.4,116.4,105,116.2,104.8,115.8"/>
				<path class="st6" d="M167,62.6c-1.2,0.6-2.6,0-3.5-0.9h0c0.6,1.2,0.6,2.7-0.4,3.6L167,62.6z"/>
				<path class="st5" d="M166.8,62.3c-0.8,0.3-1.6,0.2-2.3-0.3c-0.3-0.2-0.6-0.7-1-0.7c-0.2,0-0.5,0.1-0.4,0.4
					c0.5,1.1,0.6,2.4-0.3,3.3c-0.3,0.3,0.4,0.5,0.6,0.4c1.3-0.9,2.5-1.9,3.8-2.7c0.3-0.2-0.2-0.4-0.4-0.3c-1.3,0.9-2.7,1.7-4,2.6
					c0.2,0.1,0.4,0.2,0.6,0.4c1-1,1-2.6,0.4-3.8l-0.4,0.4h0c-0.1,0-0.2-0.1-0.3-0.1c1.1,1.1,2.6,1.6,4,1
					C167.7,62.6,167.2,62.1,166.8,62.3"/>
				<path class="st5" d="M147.1,54.2c0.7-0.5,1.6-1,1.7-1.9c0.2-1-0.4-1.9-0.6-2.8c-0.1-0.6-1.2-0.4-1,0.1c0.3,0.7,0.7,1.7,0.7,2.4
					c0,0.8-0.9,1.3-1.4,1.7C146,54.1,146.8,54.5,147.1,54.2"/>
				<path class="st7" d="M156.1,106.2c0,0,1.6-3.8,7-2.6"/>
				<path class="st7" d="M167.1,116.3c0,0,4.9-0.2,4.7-4.1c0,0-1.2-1.9,0-3.8c0,0,3.7-2.1,0.8-7.7c0,0-1.5-2.8-6.4-2.8
					c0,0-2.1,0.8-4.7,0c0,0-1.1-3.1-5.5-3.1"/>
				<path class="st7" d="M171.6,111.6c0,0,0.9-1.2,2.2-1.1c0,0,1.3,0,1.6-1.3"/>
				<path class="st7" d="M173.5,102.4c0,0,2,2.3,5.3,1.8c0,0,4.9-1.6,4.1-5.6c0,0-1.6-0.5-3.2-2.1c-2-2.1-1.1-5.1-4.8-6.8"/>
				<path class="st8" d="M153.9,82.2c0,0,2.8-4.5,7.1-2.7"/>
				<path class="st8" d="M149.3,100.4c0,0-2.7-1-1.8-3"/>
				<path class="st8" d="M92,40.3c0,0,0.1,4.8-6.7,6.8c0,0-6.7,1-9.3-3.3c0,0-0.6-2.6-5.1-3.6"/>
				<path class="st5" d="M75.4,32.5c1.4,0.6,2.8,0.8,4.3,0.2c1.4-0.6,2.5-1.9,3.6-2.9c2.6-2.5,5.6-3.6,9.3-3.2
					c0.6,0.1,1-0.7,0.3-0.8c-3.2-0.7-6.4,0.2-8.9,2.1c-1,0.8-1.9,1.7-2.8,2.6c-1.6,1.5-3.1,2.2-5.2,1.3
					C75.4,31.6,74.8,32.2,75.4,32.5"/>
				<path class="st8" d="M81.5,30.8c0,0-2.4,2.7-2.5,4.3"/>
				<path class="st9" d="M108.5,25.2c0,0-3.5,5.2-10.9,3"/>
				<path class="st9" d="M104.6,28.1c0,0-3.2,4-3.6,6.4"/>
				<path class="st10" d="M76.8,53.8c0,0-3.5,2.6-1.8,4.9c0.8,1.1,2.8,2.2,2.7,4.9"/>
				<path class="st9" d="M62.6,81.8c0,0-0.1-2.2,1.4-3.9c0,0,3.3-1.6,2.5-6.6"/>
				<path class="st5" d="M111.3,83.3c1-1.1,1.6-2.4,1.7-3.8c0.2-1.6-0.2-2.9-0.7-4.4c-0.3-0.9-2.1-0.5-1.6,0.5
					c0.6,1,0.7,2.6,0.7,3.8c-0.1,1.3-0.5,2.5-1.4,3.4C109.4,83.4,110.8,83.8,111.3,83.3"/>
				<path class="st8" d="M51.8,99.7c0,0-4.1,3.4-8.6,0"/>
				<path class="st11" d="M71.4,104.5c0,0,0.1,1.7-9.3-0.2"/>
				<path class="st5" d="M160,32.8c1.9,0.8,3.7,1.8,5.7,2.3c1.4,0.4,3.1,0.3,4.4,1c1,0.5,1.5-1,0.4-1c-1,0-2-0.3-3-0.5
					c-0.5-0.1-0.9-0.1-1.4-0.3c-1.9-0.5-3.8-1.4-5.6-2.2C160.1,32,159.4,32.6,160,32.8"/>
				<path class="st5" d="M151.7,27.7c-2-0.6-4.2-1.2-5.9-2.4c-0.5-0.4-1.1-0.8-1.6-1.3c-0.8-0.7-1.9-1.2-2.6-2
					c-0.7-0.8-1.9,0.4-1,0.7c1.8,0.6,3.1,2.3,4.6,3.3c1.8,1.2,4.1,1.8,6.2,2.4C152,28.6,152.3,27.9,151.7,27.7"/>
			</g>
		</g>
	</g>
</g>
</svg>
