<?xml version="1.0" encoding="utf-8"?>
<!-- Generator: Adobe Illustrator 22.0.1, SVG Export Plug-In . SVG Version: 6.00 Build 0)  -->
<svg version="1.1" xmlns="http://www.w3.org/2000/svg" xmlns:xlink="http://www.w3.org/1999/xlink" x="0px" y="0px"
	 viewBox="0 0 225 138.7" style="enable-background:new 0 0 225 138.7;" xml:space="preserve">
<style type="text/css">
	.st0{display:none;}
	.st1{display:inline;fill:#EA8C0D;}
	.st2{fill:#FFFFFF;}
	.st3{fill:none;stroke:#FFFFFF;stroke-width:2;stroke-miterlimit:10;}
	.st4{fill:none;stroke:#FFFFFF;stroke-miterlimit:10;}
</style>
<g id="Layer_3" class="st0">
	<rect class="st1" width="225" height="138.7"/>
</g>
<g id="Layer_2">
	<polygon class="st2" points="119,129.7 111.4,125.8 103.9,129.8 105.2,121.4 99.1,115.5 107.5,114.2 111.2,106.5 115.1,114.1 
		123.5,115.2 117.5,121.3 	"/>
	<polygon class="st2" points="91.4,129.7 83.8,125.8 76.2,129.8 77.6,121.4 71.4,115.5 79.9,114.2 83.6,106.5 87.4,114.1 
		95.9,115.2 89.8,121.3 	"/>
	<polygon class="st2" points="173.9,129.7 166.3,125.8 158.8,129.8 160.2,121.4 154,115.5 162.4,114.2 166.1,106.5 170,114.1 
		178.5,115.2 172.4,121.3 	"/>
	<polygon class="st2" points="146.8,129.7 139.2,125.8 131.7,129.8 133,121.4 126.9,115.5 135.3,114.2 139,106.5 142.9,114.1 
		151.3,115.2 145.3,121.3 	"/>
	<polygon class="st2" points="64.2,129.7 56.6,125.8 49.1,129.8 50.4,121.4 44.3,115.5 52.7,114.2 56.4,106.5 60.3,114.1 
		68.7,115.2 62.7,121.3 	"/>
</g>
<g id="Layer_6">
	<circle class="st3" cx="111.3" cy="53.1" r="49.1"/>
	<circle class="st4" cx="111.3" cy="53.1" r="18.6"/>
</g>
<g id="Layer_4">
	<path class="st2" d="M99.6,38.8c0,0,47.6,43.6,41.1,49C134.2,93.2,99.6,38.8,99.6,38.8z"/>
	<path class="st2" d="M111,46.6l-5.6,4.7c-0.8,0.7-2.1,0.6-2.8-0.2l-9.6-11.5c-0.7-0.8-0.6-2.1,0.2-2.8l5.6-4.7
		c0.8-0.7,2.1-0.6,2.8,0.2l9.6,11.5C112,44.6,111.8,45.9,111,46.6z"/>
	<path class="st2" d="M102,34.3L102,34.3c-0.4,0.4-1.1,0.3-1.5-0.1L87.3,18.4C86.9,18,87,17.3,87.4,17v0c0.4-0.4,1.1-0.3,1.5,0.1
		l13.2,15.8C102.5,33.3,102.4,34,102,34.3z"/>
	<path class="st2" d="M98.4,37.3L98.4,37.3c-0.4,0.4-1.1,0.3-1.5-0.1L83.7,21.4c-0.4-0.4-0.3-1.1,0.1-1.5v0c0.4-0.4,1.1-0.3,1.5,0.1
		l13.2,15.8C98.9,36.3,98.9,37,98.4,37.3z"/>
	<path class="st2" d="M94.9,40.3L94.9,40.3c-0.4,0.4-1.1,0.3-1.5-0.1L80.2,24.4c-0.4-0.4-0.3-1.1,0.1-1.5v0c0.4-0.4,1.1-0.3,1.5,0.1
		L95,38.8C95.4,39.3,95.3,39.9,94.9,40.3z"/>
</g>
<g id="Layer_5">
	<path class="st2" d="M123.5,39c0,0-34.6,54.5-41.1,49C75.8,82.6,123.5,39,123.5,39z"/>
	<path class="st2" d="M139,17.7L105.2,58c0,0,18.1-8.6,26.9-19.2C140.5,28.9,139,17.7,139,17.7z"/>
</g>
</svg>
