<?xml version="1.0" encoding="utf-8"?>
<!-- Generator: Adobe Illustrator 22.0.1, SVG Export Plug-In . SVG Version: 6.00 Build 0)  -->
<svg version="1.1" xmlns="http://www.w3.org/2000/svg" xmlns:xlink="http://www.w3.org/1999/xlink" x="0px" y="0px"
	 viewBox="0 0 780 272" style="enable-background:new 0 0 780 272;" xml:space="preserve">
<style type="text/css">
	.st0{fill:#EA8C0D;}
	.st1{fill:#EA8C0D;stroke:#FFFFFF;stroke-width:4;stroke-miterlimit:10;}
	.st2{fill:none;stroke:#000000;stroke-width:2;stroke-miterlimit:10;}
	.st3{fill:#FFFFFF;}
	.st4{font-family:'Verdana';}
	.st5{font-size:70px;}
	.st6{letter-spacing:-1.9;}
	.st7{font-family:'Verdana-Bold';}
	.st8{font-size:80px;}
</style>
<g id="Layer_3">
	<path class="st0" d="M158,53H40c-6.6,0-12-5.4-12-12V18c0-6.6,5.4-12,12-12h118c6.6,0,12,5.4,12,12v23C170,47.6,164.6,53,158,53z"
		/>
</g>
<g id="Layer_2">
	<path class="st1" d="M759,265.8H20.5c-6.6,0-12-5.4-12-12V40.3c0-6.6,5.4-12,12-12H759c6.6,0,12,5.4,12,12v213.5
		C771,260.4,765.6,265.8,759,265.8z"/>
</g>
<g id="Layer_6">
	<path class="st2" d="M764.4,136.2"/>
	<g>
		<path class="st3" d="M693.2,46.5c4.8-0.2,9.5-0.3,14.3-0.5c4.8-0.1,9.5-0.2,14.3-0.3c9.5-0.2,19-0.2,28.6-0.2c0.6,0,1,0.4,1,1v0
			c0,9.5-0.1,19-0.2,28.6c-0.1,4.8-0.2,9.5-0.3,14.3c-0.2,4.8-0.3,9.5-0.5,14.3c-0.2-4.8-0.3-9.5-0.5-14.3
			c-0.1-4.8-0.2-9.5-0.3-14.3c-0.2-9.5-0.2-19-0.2-28.6l1,1c-9.5,0-19-0.1-28.6-0.2c-4.8-0.1-9.5-0.2-14.3-0.3
			C702.7,46.8,698,46.7,693.2,46.5z"/>
	</g>
	<g>
		<path class="st3" d="M750.3,190.4c0.2,4.8,0.3,9.5,0.5,14.3c0.1,4.8,0.2,9.5,0.3,14.3c0.2,9.5,0.2,19,0.2,28.6c0,0.6-0.4,1-1,1h0
			c-9.5,0-19-0.1-28.6-0.2c-4.8-0.1-9.5-0.2-14.3-0.3c-4.8-0.2-9.5-0.3-14.3-0.5c4.8-0.2,9.5-0.3,14.3-0.5c4.8-0.1,9.5-0.2,14.3-0.3
			c9.5-0.2,19-0.2,28.6-0.2l-1,1c0-9.5,0.1-19,0.2-28.6c0.1-4.8,0.2-9.5,0.3-14.3C750,199.9,750.1,195.1,750.3,190.4z"/>
	</g>
	<g>
		<path class="st3" d="M88.1,247.5c-4.8,0.2-9.5,0.3-14.3,0.5c-4.8,0.1-9.5,0.2-14.3,0.3c-9.5,0.2-19,0.2-28.6,0.2c-0.6,0-1-0.4-1-1
			v0c0-9.5,0.1-19,0.2-28.6c0.1-4.8,0.2-9.5,0.3-14.3c0.2-4.8,0.3-9.5,0.5-14.3c0.2,4.8,0.3,9.5,0.5,14.3c0.1,4.8,0.2,9.5,0.3,14.3
			c0.2,9.5,0.2,19,0.2,28.6l-1-1c9.5,0,19,0.1,28.6,0.2c4.8,0.1,9.5,0.2,14.3,0.3C78.6,247.2,83.4,247.3,88.1,247.5z"/>
	</g>
	<g>
		<path class="st3" d="M31,103.6c-0.2-4.8-0.3-9.5-0.5-14.3c-0.1-4.8-0.2-9.5-0.3-14.3C30.1,65.5,30,56,30,46.5c0-0.6,0.4-1,1-1h0
			c9.5,0,19,0.1,28.6,0.2c4.8,0.1,9.5,0.2,14.3,0.3c4.8,0.2,9.5,0.3,14.3,0.5c-4.8,0.2-9.5,0.3-14.3,0.5c-4.8,0.1-9.5,0.2-14.3,0.3
			c-9.5,0.2-19,0.2-28.6,0.2l1-1c0,9.5-0.1,19-0.2,28.6c-0.1,4.8-0.2,9.5-0.3,14.3C31.3,94.1,31.2,98.9,31,103.6z"/>
	</g>
</g>
<g id="Layer_4">
	<text transform="matrix(1.033 0 0 1 230.4258 120)" class="st3 st4 st5 st6">PROJECT</text>
</g>
<g id="Layer_5">
	<text transform="matrix(1.033 0 0 1 115.769 211)" class="st3 st7 st8">PORTFOLIO</text>
</g>
</svg>
